<svg width="36" height="36" viewBox="0 0 36 36" fill="none" xmlns="http://www.w3.org/2000/svg">
<path d="M18 15C17.2044 15 16.4413 15.3161 15.8787 15.8787C15.3161 16.4413 15 17.2044 15 18C15 18.7956 15.3161 19.5587 15.8787 20.1213C16.4413 20.6839 17.2044 21 18 21C18.7956 21 19.5587 20.6839 20.1213 20.1213C20.6839 19.5587 21 18.7956 21 18C21 17.2044 20.6839 16.4413 20.1213 15.8787C19.5587 15.3161 18.7956 15 18 15ZM18 13C19.3261 13 20.5979 13.5268 21.5355 14.4645C22.4732 15.4021 23 16.6739 23 18C23 19.3261 22.4732 20.5979 21.5355 21.5355C20.5979 22.4732 19.3261 23 18 23C16.6739 23 15.4021 22.4732 14.4645 21.5355C13.5268 20.5979 13 19.3261 13 18C13 16.6739 13.5268 15.4021 14.4645 14.4645C15.4021 13.5268 16.6739 13 18 13ZM24.5 12.75C24.5 13.0815 24.3683 13.3995 24.1339 13.6339C23.8995 13.8683 23.5815 14 23.25 14C22.9185 14 22.6005 13.8683 22.3661 13.6339C22.1317 13.3995 22 13.0815 22 12.75C22 12.4185 22.1317 12.1005 22.3661 11.8661C22.6005 11.6317 22.9185 11.5 23.25 11.5C23.5815 11.5 23.8995 11.6317 24.1339 11.8661C24.3683 12.1005 24.5 12.4185 24.5 12.75ZM18 10C15.526 10 15.122 10.007 13.971 10.058C13.187 10.095 12.661 10.2 12.173 10.39C11.7646 10.5399 11.3954 10.7803 11.093 11.093C10.78 11.3954 10.5394 11.7646 10.389 12.173C10.199 12.663 10.094 13.188 10.058 13.971C10.006 15.075 10 15.461 10 18C10 20.474 10.007 20.878 10.058 22.029C10.095 22.812 10.2 23.339 10.389 23.826C10.559 24.261 10.759 24.574 11.091 24.906C11.428 25.242 11.741 25.443 12.171 25.609C12.665 25.8 13.191 25.906 13.971 25.942C15.075 25.994 15.461 26 18 26C20.474 26 20.878 25.993 22.029 25.942C22.811 25.905 23.338 25.8 23.826 25.611C24.2338 25.4603 24.6027 25.2205 24.906 24.909C25.243 24.572 25.444 24.259 25.61 23.829C25.8 23.336 25.906 22.809 25.942 22.029C25.994 20.925 26 20.539 26 18C26 15.526 25.993 15.122 25.942 13.971C25.905 13.189 25.8 12.661 25.61 12.173C25.4593 11.765 25.2191 11.396 24.907 11.093C24.6047 10.7798 24.2355 10.5392 23.827 10.389C23.337 10.199 22.811 10.094 22.029 10.058C20.925 10.006 20.539 10 18 10ZM18 8C20.717 8 21.056 8.01 22.122 8.06C23.187 8.11 23.912 8.277 24.55 8.525C25.21 8.779 25.766 9.123 26.322 9.678C26.8305 10.1779 27.224 10.7826 27.475 11.45C27.722 12.087 27.89 12.813 27.94 13.878C27.987 14.944 28 15.283 28 18C28 20.717 27.99 21.056 27.94 22.122C27.89 23.187 27.722 23.912 27.475 24.55C27.2247 25.2178 26.8311 25.8226 26.322 26.322C25.822 26.8303 25.2173 27.2238 24.55 27.475C23.913 27.722 23.187 27.89 22.122 27.94C21.056 27.987 20.717 28 18 28C15.283 28 14.944 27.99 13.878 27.94C12.813 27.89 12.088 27.722 11.45 27.475C10.7823 27.2245 10.1775 26.8309 9.678 26.322C9.16941 25.8222 8.77593 25.2175 8.525 24.55C8.277 23.913 8.11 23.187 8.06 22.122C8.013 21.056 8 20.717 8 18C8 15.283 8.01 14.944 8.06 13.878C8.11 12.812 8.277 12.088 8.525 11.45C8.77524 10.7822 9.1688 10.1773 9.678 9.678C10.1777 9.16923 10.7824 8.77573 11.45 8.525C12.088 8.277 12.812 8.11 13.878 8.06C14.944 8.013 15.283 8 18 8Z" fill="url(#paint0_linear_415_24)"/>
<rect x="0.5" y="0.5" width="35" height="35" rx="17.5" stroke="url(#paint1_linear_415_24)"/>
<defs>
<linearGradient id="paint0_linear_415_24" x1="18" y1="8" x2="16" y2="46.5" gradientUnits="userSpaceOnUse">
<stop stop-color="white"/>
<stop offset="1" stop-color="white" stop-opacity="0"/>
</linearGradient>
<linearGradient id="paint1_linear_415_24" x1="18" y1="0" x2="18" y2="40" gradientUnits="userSpaceOnUse">
<stop stop-color="white"/>
<stop offset="1" stop-color="white" stop-opacity="0"/>
</linearGradient>
</defs>
</svg>
