<svg width="12" height="21" viewBox="0 0 12 21" fill="none" xmlns="http://www.w3.org/2000/svg">
<path d="M7.33023 2.49689H8.1975H10.5C10.7654 2.49689 11.0198 2.39157 11.2073 2.20426C11.3948 2.01698 11.5 1.76308 11.5 1.49844C11.5 1.23381 11.3948 0.979906 11.2073 0.792621C11.0198 0.605319 10.7654 0.5 10.5 0.5H1.5C1.23462 0.5 0.980207 0.605319 0.79271 0.792621C0.605231 0.979906 0.5 1.23381 0.5 1.49844C0.5 1.76308 0.605231 2.01698 0.79271 2.20426C0.980207 2.39157 1.23462 2.49689 1.5 2.49689H2.99974H3V2.99689C3.52675 2.99662 4.04429 3.13497 4.5005 3.39802C4.77712 3.55752 5.02528 3.75946 5.23647 3.99533L7.33023 2.49689ZM7.33023 2.49689L7.7648 3.24742C8.01374 3.67737 8.20282 4.1392 8.32683 4.62016L8.42356 4.99533H8.811H10.5C10.7654 4.99533 11.0198 5.10065 11.2073 5.28795C11.3948 5.47523 11.5 5.72914 11.5 5.99377C11.5 6.25841 11.3948 6.51231 11.2073 6.69959C11.0198 6.88689 10.7654 6.99221 10.5 6.99221H8.811H8.42413L8.32701 7.36669C8.06938 8.36007 7.53878 9.26175 6.79508 9.96984C6.05138 10.6779 5.12422 11.1642 4.11832 11.3737L3.39328 11.5246L3.80434 12.1407L8.33209 18.9264L8.33202 18.9264L8.33699 18.9336C8.41251 19.0426 8.46553 19.1655 8.49296 19.2952C8.52039 19.4249 8.52169 19.5587 8.4968 19.6888C8.4719 19.819 8.42129 19.943 8.34792 20.0534C8.27453 20.1639 8.17984 20.2587 8.06933 20.3323C7.95882 20.4058 7.83472 20.4567 7.70428 20.4819C7.57383 20.507 7.43967 20.506 7.30963 20.4788C7.17959 20.4516 7.0563 20.3988 6.94694 20.3236C6.83759 20.2483 6.74438 20.1521 6.67272 20.0405L6.67279 20.0404L6.66789 20.0331L0.667959 11.0425L7.33023 2.49689Z" stroke="url(#paint0_linear_1045_52)"/>
<defs>
<linearGradient id="paint0_linear_1045_52" x1="6" y1="0" x2="6" y2="21" gradientUnits="userSpaceOnUse">
<stop stop-color="white"/>
<stop offset="1" stop-color="white" stop-opacity="0"/>
</linearGradient>
</defs>
</svg>
