<svg width="22" height="17" viewBox="0 0 22 17" fill="none" xmlns="http://www.w3.org/2000/svg">
<path d="M0 3.89583C0 2.86259 0.398381 1.87167 1.1075 1.14106C1.81662 0.410452 2.7784 0 3.78125 0H18.2188C19.2216 0 20.1834 0.410452 20.8925 1.14106C21.6016 1.87167 22 2.86259 22 3.89583V13.1042C22 14.1374 21.6016 15.1283 20.8925 15.8589C20.1834 16.5895 19.2216 17 18.2188 17H3.78125C2.7784 17 1.81662 16.5895 1.1075 15.8589C0.398381 15.1283 0 14.1374 0 13.1042V3.89583ZM12.375 3.54167C12.375 3.72953 12.4474 3.9097 12.5764 4.04253C12.7053 4.17537 12.8802 4.25 13.0625 4.25H14.1529L11.8883 6.58183C11.8243 6.64769 11.7736 6.72588 11.739 6.81192C11.7044 6.89797 11.6866 6.9902 11.6866 7.08333C11.6866 7.17647 11.7044 7.2687 11.739 7.35474C11.7736 7.44079 11.8243 7.51898 11.8883 7.58483C11.9522 7.65069 12.0281 7.70293 12.1116 7.73857C12.1951 7.77422 12.2846 7.79256 12.375 7.79256C12.4654 7.79256 12.5549 7.77422 12.6384 7.73857C12.7219 7.70293 12.7978 7.65069 12.8617 7.58483L15.125 5.25158V6.375C15.125 6.56286 15.1974 6.74303 15.3264 6.87587C15.4553 7.00871 15.6302 7.08333 15.8125 7.08333C15.9948 7.08333 16.1697 7.00871 16.2986 6.87587C16.4276 6.74303 16.5 6.56286 16.5 6.375V3.54167C16.5 3.3538 16.4276 3.17364 16.2986 3.0408C16.1697 2.90796 15.9948 2.83333 15.8125 2.83333H13.0625C12.8802 2.83333 12.7053 2.90796 12.5764 3.0408C12.4474 3.17364 12.375 3.3538 12.375 3.54167ZM10.1117 9.41517C10.0479 9.3492 9.97202 9.29687 9.8885 9.26116C9.80497 9.22545 9.71543 9.20707 9.625 9.20707C9.53457 9.20707 9.44503 9.22545 9.3615 9.26116C9.27798 9.29687 9.20211 9.3492 9.13825 9.41517L6.875 11.7484V10.625C6.875 10.4371 6.80257 10.257 6.67364 10.1241C6.5447 9.99129 6.36984 9.91667 6.1875 9.91667C6.00516 9.91667 5.8303 9.99129 5.70136 10.1241C5.57243 10.257 5.5 10.4371 5.5 10.625V13.4583C5.5 13.6462 5.57243 13.8264 5.70136 13.9592C5.8303 14.092 6.00516 14.1667 6.1875 14.1667H8.9375C9.11984 14.1667 9.29471 14.092 9.42364 13.9592C9.55257 13.8264 9.625 13.6462 9.625 13.4583C9.625 13.2705 9.55257 13.0903 9.42364 12.9575C9.29471 12.8246 9.11984 12.75 8.9375 12.75H7.84712L10.1117 10.4182C10.1758 10.3524 10.2266 10.2742 10.2612 10.1881C10.2959 10.1021 10.3137 10.0098 10.3137 9.91667C10.3137 9.8235 10.2959 9.73124 10.2612 9.64519C10.2266 9.55913 10.1758 9.48096 10.1117 9.41517Z" fill="black"/>
</svg>
