<svg width="41" height="38" viewBox="0 0 41 38" fill="none" xmlns="http://www.w3.org/2000/svg">
<path d="M17.3458 25.8134C23.7612 25.8134 27.2695 20.4987 27.2695 15.8896C27.2695 15.7387 27.2695 15.5886 27.2596 15.4391C27.9424 14.9452 28.5317 14.3335 29 13.6329C28.3635 13.9152 27.6883 14.1005 26.9968 14.1825C27.7248 13.7464 28.2695 13.0607 28.5297 12.253C27.8452 12.6592 27.0963 12.9455 26.3154 13.0995C25.7895 12.5403 25.094 12.17 24.3364 12.0459C23.5789 11.9218 22.8015 12.0509 22.1247 12.4131C21.4479 12.7753 20.9093 13.3505 20.5923 14.0496C20.2753 14.7487 20.1976 15.5328 20.3711 16.2806C18.9845 16.2111 17.6279 15.8508 16.3896 15.2231C15.1512 14.5954 14.0587 13.7143 13.1829 12.6369C12.737 13.4048 12.6005 14.3138 12.8012 15.1788C13.0019 16.0437 13.5247 16.7997 14.2631 17.2928C13.708 17.2762 13.165 17.1263 12.68 16.8558V16.9004C12.6802 17.7056 12.9589 18.486 13.4689 19.1092C13.9788 19.7324 14.6886 20.16 15.4779 20.3195C14.9645 20.4594 14.4258 20.4797 13.9033 20.379C14.1261 21.0721 14.56 21.6781 15.1442 22.1125C15.7284 22.5468 16.4338 22.7877 17.1616 22.8015C16.4384 23.3697 15.6103 23.7898 14.7246 24.0378C13.839 24.2857 12.9131 24.3567 12 24.2465C13.5948 25.2703 15.4506 25.8135 17.3458 25.8112" fill="url(#paint0_linear_415_28)"/>
<rect x="0.5" y="0.5" width="40" height="36.8134" rx="18.4067" stroke="url(#paint1_linear_415_28)"/>
<defs>
<linearGradient id="paint0_linear_415_28" x1="20.5" y1="12" x2="20.5" y2="43.3432" gradientUnits="userSpaceOnUse">
<stop stop-color="white"/>
<stop offset="1" stop-opacity="0"/>
</linearGradient>
<linearGradient id="paint1_linear_415_28" x1="20.5" y1="0" x2="20.5" y2="42.0148" gradientUnits="userSpaceOnUse">
<stop stop-color="white"/>
<stop offset="1" stop-color="white" stop-opacity="0"/>
</linearGradient>
</defs>
</svg>
