<svg width="24" height="24" viewBox="0 0 24 24" fill="none" xmlns="http://www.w3.org/2000/svg">
<path d="M10.98 4.19999C12.0735 4.19999 12.96 3.31351 12.96 2.21999C12.96 1.12647 12.0735 0.23999 10.98 0.23999C9.88648 0.23999 9 1.12647 9 2.21999C9 3.31351 9.88648 4.19999 10.98 4.19999Z" fill="black"/>
<path d="M10.56 4.79999H9.12C7.7664 4.79999 6.72 5.62511 6.72 7.00175V12.96C6.72 13.92 8.16 13.92 8.16 12.96V7.19999H8.64V22.56C8.64 23.1518 9.00864 23.52 9.6 23.52C10.1928 23.52 10.56 23.1518 10.56 22.56V4.79999ZM16.8 12L14.8718 7.02863C14.7043 5.91455 13.5792 4.79999 12.2952 4.79999H11.04V16.2158C11.28 16.2168 11.52 16.2518 11.52 16.32V22.56C11.52 23.0592 11.9602 23.52 12.48 23.52C13.0013 23.52 13.44 23.0587 13.44 22.56V16.32H15.2971C15.4709 16.32 15.7982 16.0061 15.7982 15.84C15.7982 15.8016 15.8122 15.3931 15.7982 15.36L12.9619 7.56623L12.9456 7.48607C12.9456 7.37231 13.0411 7.28015 13.1602 7.28015C13.2614 7.28015 13.3464 7.34783 13.369 7.43807L15.2971 12.48C15.4253 12.7685 15.9523 12.96 16.2989 12.96C16.7621 12.96 16.8101 12.0504 16.8 12Z" fill="black"/>
</svg>
